<svg xmlns="http://www.w3.org/2000/svg" version="1.1" xmlns:xlink="http://www.w3.org/1999/xlink" xmlns:svgjs="http://svgjs.dev/svgjs" width="1000" height="1000" viewBox="0 0 1000 1000"><g transform="matrix(1,0,0,1,-0.14221556886212738,-0.14221556886229791)"><svg viewBox="0 0 334 334" data-background-color="#ffffff" preserveAspectRatio="xMidYMid meet" height="1000" width="1000" xmlns="http://www.w3.org/2000/svg" xmlns:xlink="http://www.w3.org/1999/xlink"><g id="tight-bounds" transform="matrix(1,0,0,1,0.04749999999998522,0.04750000000001364)"><svg viewBox="0 0 333.90454557049503 333.90454557049503" height="333.90454557049503" width="333.90454557049503"><g><svg></svg></g><g><svg viewBox="0 0 333.90454557049503 333.90454557049503" height="333.90454557049503" width="333.90454557049503"><g><path d="M0 166.952c0-92.205 74.747-166.952 166.952-166.952 92.205 0 166.952 74.747 166.953 166.952 0 92.205-74.747 166.952-166.953 166.953-92.205 0-166.952-74.747-166.952-166.953zM166.952 316.63c82.665 0 149.677-67.013 149.678-149.678 0-82.665-67.013-149.677-149.678-149.677-82.665 0-149.677 67.013-149.677 149.677 0 82.665 67.013 149.677 149.677 149.678z" data-fill-palette-color="tertiary" fill="#915eff" stroke="transparent"></path><ellipse rx="160.27418187383762" ry="160.27418187383762" cx="166.95227278524752" cy="166.95227278524752" fill="#915eff" stroke="transparent" stroke-width="0" fill-opacity="1" data-fill-palette-color="tertiary"></ellipse></g><g transform="matrix(1,0,0,1,93.81776137515419,71.17305217166896)"><svg viewBox="0 0 146.26902282018665 191.55844122715712" height="191.55844122715712" width="146.26902282018665"><g><svg viewBox="0 0 146.26902282018665 191.55844122715712" height="191.55844122715712" width="146.26902282018665"><g><svg viewBox="0 0 146.26902282018665 191.55844122715712" height="191.55844122715712" width="146.26902282018665"><g id="textblocktransform"><svg viewBox="0 0 146.26902282018665 191.55844122715712" height="191.55844122715712" width="146.26902282018665" id="textblock"><g><svg viewBox="0 0 146.26902282018665 191.55844122715712" height="191.55844122715712" width="146.26902282018665"><g transform="matrix(1,0,0,1,0,0)"><svg width="146.26902282018665" viewBox="1.7 -35.52 27.779999999999998 36.370000000000005" height="191.55844122715712" data-palette-color="#ffffff"><path d="M17.9-35.52L17.9-35.52Q21.63-35.52 24.24-34.54 26.85-33.55 29.03-31.75L29.03-31.75 25-26.9Q23.58-28.08 21.85-28.76 20.13-29.45 18.1-29.45L18.1-29.45Q15.93-29.45 14.13-28.21 12.33-26.98 11.25-24.31 10.18-21.65 10.18-17.4L10.18-17.4Q10.18-13.23 11.21-10.59 12.25-7.95 14.08-6.71 15.9-5.48 18.25-5.48L18.25-5.48Q20.85-5.48 22.58-6.45 24.3-7.43 25.75-8.58L25.75-8.58 29.48-3.83Q27.53-1.9 24.68-0.53 21.83 0.85 17.8 0.85L17.8 0.85Q13.1 0.85 9.46-1.24 5.83-3.33 3.76-7.39 1.7-11.45 1.7-17.4L1.7-17.4Q1.7-23.2 3.84-27.25 5.98-31.3 9.65-33.41 13.33-35.52 17.9-35.52Z" opacity="1" transform="matrix(1,0,0,1,0,0)" fill="#ffffff" class="wordmark-text-0" data-fill-palette-color="quaternary" id="text-0"></path></svg></g></svg></g></svg></g></svg></g><g></g></svg></g></svg></g></svg></g><defs></defs></svg><rect width="333.90454557049503" height="333.90454557049503" fill="none" stroke="none" visibility="hidden"></rect></g></svg></g></svg>